<?xml version="1.0" encoding="utf-8"?>
<!-- Generator: Adobe Illustrator 22.0.0, SVG Export Plug-In . SVG Version: 6.00 Build 0)  -->
<svg version="1.1" id="Layer_1" xmlns="http://www.w3.org/2000/svg" xmlns:xlink="http://www.w3.org/1999/xlink" x="0px" y="0px"
	 viewBox="0 0 475.3 484" style="enable-background:new 0 0 475.3 484;" xml:space="preserve">
<title>export</title>
<path d="M98.8,447c2.8,4.6,7.8,7.2,9,13c1.7,8.3-0.8,16.4-8,21.2c-6.9,4.3-15.8,3.6-21.9-1.8c-11.3-10.4-22.2-21.1-33.3-31.6
	C32,435.9,19.5,423.9,6.5,412.3c-7.3-6.4-8.6-17.3-3.2-25.3c5.5-7.9,16.3-10.4,24.4-5.5c3.3,2,6.4,4.3,9.2,6.9
	c2.7,2.5,3.9,1.9,5.6-1.1c5.3-9.2,8-19.6,13.1-28.9c3.4-6.3,5.9-13,9-19.4c9.3-19.3,17.7-39,26.9-58.3c10.4-21.7,19.5-44,29.8-65.8
	c6.6-13.8,12.4-27.9,19.1-41.7c9.4-19.3,17.4-39.1,26.7-58.4c6.9-14.2,12.5-29,19.8-43c1.8-3.5,1.9-5.7-1.2-8.6
	c-4.6-4.4-9.8-8.3-12.3-14.8c-3.5-9.1-1.2-18.4,6.5-23.3c8.3-5.3,18-3.8,24.9,3.3c9.9,10.1,20.4,19.8,30.6,29.7s20.4,19.9,30.7,29.7
	c9.7,9.2,19.6,18.3,29.2,27.6c10.1,9.6,20,19.3,30,28.9s19.8,19,29.8,28.5c7.8,7.4,15.6,14.8,23.4,22.2c10.3,9.8,20.7,19.6,31,29.4
	c9.9,9.5,19.7,19.1,29.5,28.6c5.6,5.4,11.2,10.9,17,16c8.5,7.2,9.6,20,2.4,28.6c-0.1,0.2-0.3,0.3-0.4,0.4c-7.2,8-19.8,8.2-28.1,0.3
	c-3.4-3.2-6.8-6.4-10.1-9.7c-1.7-2-4.6-2.5-6.8-1.2c-16.8,8.3-33.5,16.7-50.2,25.1c-18.2,9.2-36.3,18.3-54.5,27.5
	c-3.8,2-7.5,4.1-11.6,6.4c1.2,3.3,2.6,6.6,3.6,10c6.2,22.6,4.8,44.5-8.4,64.3c-6.6,9.9-14.5,19.3-25.3,24.9
	c-15.4,8.1-31.3,13.4-49.6,12.8c-24-0.9-45.3-9.1-66.6-18.5c-5.1-2.3-9.5-6.1-14.1-9.4c-1.7-1.3-3.5-2.6-5.4-1.3
	C121.4,436.8,109,439,98.8,447z M97.8,387.9c4.1,0.4,6.5-1.8,8.2-5.2c7.9-16.1,15.9-32.3,23.8-48.4c28.2-57.2,56.3-114.5,84.5-171.7
	c5.7-11.5,11.8-22.8,17-34.4c3.4-7.6-1.9-13.6-9.8-12.1c-3.6,0.7-5.1,3.4-6.5,6.3c-10.3,21.1-20.7,42.2-31,63.2
	c-27.9,56.5-55.7,112.9-83.6,169.3c-3.2,6.5-6.5,13.2-9.5,19.8C87.6,382,90.8,387.8,97.8,387.9L97.8,387.9z M176.7,407
	c1.9,2.8,4.4,2.1,6.4,2.9c17.5,6.9,35.3,9.7,54.1,5.7c15.3-3.3,25.8-14.3,27.4-30c0.8-7.2,0.1-14.2-3.7-21.1
	C232.8,378.7,204.9,392.9,176.7,407L176.7,407z"/>
<path d="M475.1,150.6c1.1,29.9-7.6,57.1-23.4,82.3c-2.3,3.6-4.3,4-7.5,1.1c-20.7-19.5-41.5-39-62.3-58.3c-3.2-3-4.3-5.9-3.2-10.1
	c3.7-13.9,0.7-27.4-4.6-40c-5.6-13.2-17-20.6-30.5-24.6c-11.9-3.5-23.9-4.4-35.9-0.1c-3.3,1.2-5.8-0.1-8.1-2.3l-45.9-43
	c-5-4.7-10-9.2-15.1-13.8c-5.6-5.2-5.6-7.8,0.4-12.2c35.1-25.7,74.2-35,116.8-26.4c64.2,13,111.8,65.7,119.1,131
	C475.6,139.5,475.1,145.1,475.1,150.6z"/>
</svg>
