<svg id="Layer_1" data-name="Layer 1" xmlns="http://www.w3.org/2000/svg" viewBox="0 0 475.27 483.99"><defs><style>.cls-1{fill:#00ff98;}</style></defs><title>export</title><path class="cls-1" d="M98.93,447c2.81,4.62,7.79,7.21,9,13,1.69,8.34-.8,16.42-8,21.19a18.41,18.41,0,0,1-21.87-1.79C66.81,469,55.91,458.29,44.78,447.81c-12.65-11.92-25.22-23.94-38.17-35.53A19.23,19.23,0,0,1,3.45,387c5.52-7.9,16.32-10.43,24.35-5.49A60.6,60.6,0,0,1,37,388.37c2.69,2.48,3.92,1.85,5.61-1.06,5.35-9.22,8-19.6,13.13-28.94,3.4-6.26,5.93-13,9-19.41,9.33-19.28,17.66-39,26.93-58.32,10.42-21.69,19.48-44,29.82-65.77,6.56-13.81,12.43-27.94,19.11-41.68,9.37-19.27,17.4-39.15,26.74-58.4,6.9-14.23,12.48-29,19.79-43,1.81-3.47,1.89-5.72-1.18-8.63-4.63-4.4-9.79-8.33-12.25-14.81-3.46-9.08-1.21-18.4,6.5-23.34,8.34-5.34,18-3.75,24.88,3.26C215,38.39,225.46,48.08,235.7,58s20.42,19.85,30.71,29.69C276.1,96.92,286,106,295.65,115.29c10.06,9.6,20,19.3,30,28.92s19.82,19,29.76,28.49q11.68,11.15,23.42,22.24c10.32,9.8,20.69,19.57,31,29.43,9.9,9.5,19.66,19.13,29.54,28.65,5.6,5.4,11.16,10.87,17,16a20.26,20.26,0,0,1,2,29c-7.23,8-19.77,8.17-28.15.34-3.41-3.18-6.8-6.37-10.07-9.69a5.43,5.43,0,0,0-6.83-1.17Q388.15,300,363.15,312.64q-27.24,13.73-54.45,27.55c-3.83,1.95-7.54,4.15-11.56,6.38,1.18,3.3,2.61,6.61,3.56,10.05,6.24,22.61,4.83,44.48-8.44,64.3-6.61,9.87-14.5,19.29-25.3,24.94-15.43,8.08-31.25,13.42-49.58,12.76-24-.85-45.34-9.08-66.58-18.48-5.08-2.25-9.5-6.06-14.07-9.38-1.74-1.26-3.5-2.64-5.37-1.26C121.51,436.71,109.05,438.94,98.93,447Zm-1-59.11c4.12.44,6.46-1.75,8.16-5.22,7.91-16.15,15.9-32.26,23.84-48.4q42.26-85.85,84.49-171.7c5.66-11.49,11.8-22.75,17-34.44,3.38-7.61-1.87-13.6-9.75-12.14-3.61.67-5.09,3.37-6.52,6.29q-15.48,31.62-31,63.22-41.79,84.69-83.64,169.34C97.26,361.38,94,368,91,374.62c-3.31,7.31-.14,13.16,7,13.24ZM176.8,407c1.91,2.82,4.41,2.09,6.35,2.85,17.47,6.88,35.34,9.68,54.06,5.68,15.27-3.26,25.76-14.34,27.44-30,.77-7.22.09-14.16-3.71-21.09-28.09,14.24-56,28.37-84.11,42.56Z" transform="translate(-0.09 0.05)"/><path class="cls-1" d="M475.15,150.51c1.08,29.93-7.64,57.12-23.4,82.31-2.26,3.63-4.33,4-7.45,1.1Q413.23,204.64,382,175.58c-3.2-3-4.3-5.85-3.17-10.08,3.71-13.89.73-27.37-4.64-40-5.6-13.16-17-20.62-30.49-24.62-11.88-3.53-23.9-4.39-35.85-.13-3.31,1.18-5.78-.08-8.11-2.27l-45.89-43c-5-4.65-10-9.24-15.06-13.84-5.63-5.15-5.64-7.78.37-12.17C274.28,3.8,313.31-5.53,356,3.07c64.2,13,111.81,65.67,119.12,131C475.68,139.46,475.15,145,475.15,150.51Z" transform="translate(-0.09 0.05)"/></svg>